<?xml version="1.0" encoding="utf-8"?>
<!-- Generator: Adobe Illustrator 24.0.1, SVG Export Plug-In . SVG Version: 6.00 Build 0)  -->
<svg version="1.1" xmlns="http://www.w3.org/2000/svg" xmlns:xlink="http://www.w3.org/1999/xlink" x="0px" y="0px"
	 viewBox="0 0 6912 3456" style="enable-background:new 0 0 6912 3456;" xml:space="preserve">
<style type="text/css">
	.st0{fill:#FFFFFF;}
	.st1{fill:#ECC8C4;}
	.st2{fill:none;}
	.st3{fill:none;stroke:#000000;stroke-miterlimit:10;}
</style>
<g id="Layer_2">
	<g id="IRrsEx.tif">
		<g>
			<path class="st0" d="M901.6,986.2c10.3,11.5,18.3,22.7,23.8,35.1c15.9,36.2,31.4,72.5,46.3,109.1c27.8,68.2,53,137.4,67.7,209.6
				c5,24.8,16.1,43.8,34.6,59.7c16.2,13.9,34.6,11.9,46.1-6.2c13.1-20.7,15.8-44.4,16.6-67.9c2.2-70.9-3.5-141.5-13.5-211.6
				c-5.6-39.5-13.4-78.8-28.7-116.2c-11.9-29.1-29-55.5-43.8-83c-33.8-62.9-67.7-125.7-102.3-188.2c-47.7-86-97.3-171-139.4-260
				c-9.3-19.8-20-39.7-21.7-61.8c-5-64.4-8.2-129-17-193c-4.6-33.5-7.5-67.4-26.5-97.3c-23.6-37.2-51.6-70.3-90.3-91.7
				c-49.3-27.3-103.1-25.7-157-18c-30.2,4.3-57.1,19.3-86,27.6c-22,6.3-44.1,14.7-67.5,10c-25.8-5.1-51.2-11.9-76.9-17.4
				c-28.9-6.1-57.6-13.4-87.6-12.2c-13.1,0.5-18.9,5.5-19.1,18.9c-0.3,23.9,13.3,40.2,30,53.9c53.7,44,113,81.5,157.1,136.4
				c36.7,45.7,58.2,96.5,45,156.8c-15.4,69.9-42,135.2-83.8,193.4c-48.1,66.9-92.9,136-138.1,204.8c-44.4,67.6-93,132-116,212.8
				C23.2,1097-4.2,1203.6,0.5,1316.3c1.7,40.3,13.4,75.1,39.2,105.5c15.8,18.7,38.7,17.2,50.1-3.4c3.1-5.7,5.7-12.2,6.5-18.6
				c3.8-29.8,7.3-59.7,10.2-89.6c3.6-36.5,8.9-72.7,15.6-108.8c8.9-47.7,33.7-90,45.7-136.6c0.7-2.8,1.3-8.1,7.8-6.6
				c-2.9,24.9-6.7,49.7-8.6,74.7c-2.7,34.5-12.8,68.3-13.4,102.4c-1.1,59.9-4.1,119.8-5.1,179.7c-0.5,31.3-2.1,62.5,1.7,93.4
				c7.2,58.9,20.8,116.5,45,171.2c24,54.2,56.5,101.5,104.2,137.4c17.4,13.1,17.5,23.9-1.8,34.1c-18.4,9.7-37.8,17.6-56.7,26.4
				c-25.8,12.1-52.8,21.5-77.5,36c-8.2,4.8-11.6,11.1-10.5,20.4c1.2,10,8.9,15.5,16.8,15.5c15.7-0.1,31,5.5,47.2,1.7
				c16.5-3.9,22.8,1.8,24.9,19.2c0.7,6,0.4,11.9,2.3,17.9c6.8,20.8,19.7,27.3,38.8,17.1c10.1-5.4,19.9-12.1,28-20.1
				c33.9-33.5,71.8-51.1,120.2-35.6c7.5,2.4,16.5,1.4,24.6,0.2c21.1-3.3,29.8-18.5,22.3-38.7c-3.8-10.3-9.9-19.6-17.5-27.8
				c-7.9-8.6-13.3-18.7-18.9-28.8c-6.9-12.3-2.6-20.3,9-24.7c17.4-6.6,35-12.8,52.9-18.1c39-11.7,79.4-15.5,119.6-19.4
				c36-3.5,71.2,2.3,104.3,17.8c13.8,6.4,24.4,17.9,25.2,32.5c0.7,13.6-9.3,23.9-22.9,29.3c-5.5,2.2-10.4,6.1-15.5,9.3
				c-16,9.8-31.3,20.5-43.2,35.3c-11.5,14.3-7.9,30.5,8.3,32.4c21,2.5,42.4,3,63.5,2.1c15.3-0.7,31.9,5.3,38.7,19
				c4.2,8.5,9.5,16.1,15.2,23.4c15.3,19.4,33.8,20.7,51,3.6c4.7-4.7,9.5-9.2,14-14c27.1-29,57.1-46.1,97.9-27.5
				c10.3,4.7,22.9,3.9,29-8c5.7-11.2,5-22.6-4.8-33.2c-18.5-20-42-33.5-62.5-50.6c-22.7-19-42-49-25.2-75.7
				c15.8-25.2,29.4-51.4,41.2-78.8c20.4-47.7,34.8-97.2,40.8-148.6c5.7-49.2,3.9-98.9,3.5-148.3c-0.4-56.6-4.6-112.5-19.5-167.7
				c-19-70.4-31.2-142.5-52.7-212.3C905,1018,893.8,1004.9,901.6,986.2z"/>
			<path class="st1" d="M901.6,986.2c-7.8,18.7,3.5,31.8,7.8,46c21.5,69.8,33.8,141.9,52.7,212.3c14.9,55.2,19.1,111.1,19.5,167.7
				c0.3,49.5,2.1,99.1-3.5,148.3c-5.9,51.5-20.3,100.9-40.8,148.6c-11.7,27.4-25.4,53.6-41.2,78.8c-16.7,26.8,2.5,56.7,25.2,75.7
				c20.6,17.2,44.1,30.6,62.5,50.6c9.8,10.6,10.5,21.9,4.8,33.2c-6.1,11.9-18.7,12.7-29,8c-40.8-18.6-70.8-1.5-97.9,27.5
				c-4.5,4.8-9.3,9.4-14,14c-17.1,17.1-35.7,15.8-51-3.6c-5.8-7.3-11-14.9-15.2-23.4c-6.9-13.8-23.5-19.7-38.7-19
				c-21.1,0.9-42.5,0.4-63.5-2.1c-16.2-1.9-19.8-18.1-8.3-32.4c11.9-14.8,27.2-25.5,43.2-35.3c5.1-3.1,10-7,15.5-9.3
				c13.5-5.5,23.6-15.7,22.9-29.3c-0.8-14.6-11.4-26-25.2-32.5c-33.1-15.5-68.3-21.3-104.3-17.8c-40.2,3.9-80.7,7.7-119.6,19.4
				c-17.8,5.4-35.5,11.5-52.9,18.1c-11.7,4.4-15.9,12.5-9,24.7c5.7,10.1,11,20.2,18.9,28.8c7.5,8.1,13.6,17.4,17.5,27.8
				c7.5,20.2-1.1,35.5-22.3,38.7c-8,1.2-17.1,2.2-24.6-0.2c-48.4-15.5-86.3,2.2-120.2,35.6c-8.1,8-17.9,14.7-28,20.1
				c-19.1,10.2-32,3.8-38.8-17.1c-1.9-6-1.6-11.9-2.3-17.9c-2.1-17.5-8.4-23.1-24.9-19.2c-16.1,3.8-31.4-1.8-47.2-1.7
				c-7.9,0-15.6-5.5-16.8-15.5c-1.1-9.2,2.2-15.5,10.5-20.4c24.7-14.5,51.7-23.9,77.5-36c18.9-8.9,38.3-16.7,56.7-26.4
				c19.3-10.2,19.3-21,1.8-34.1c-47.7-35.9-80.3-83.2-104.2-137.4c-24.2-54.7-37.8-112.3-45-171.2c-3.8-30.8-2.2-62.1-1.7-93.4
				c1-59.9,4.1-119.8,5.1-179.7c0.6-34.2,10.8-68,13.4-102.4c1.9-24.9,5.6-49.8,8.6-74.7c-6.5-1.5-7.1,3.8-7.8,6.6
				c-12,46.6-36.8,88.9-45.7,136.6c-6.7,36-12,72.3-15.6,108.8c-2.9,29.9-6.4,59.8-10.2,89.6c-0.8,6.4-3.4,12.9-6.5,18.6
				c-11.4,20.7-34.3,22.1-50.1,3.4c-25.8-30.4-37.5-65.2-39.2-105.5c-4.7-112.7,22.6-219.3,53.1-326.4c23-80.7,71.6-145.1,116-212.8
				c45.1-68.8,89.9-137.9,138.1-204.8c41.9-58.2,68.5-123.5,83.8-193.4c13.2-60.3-8.3-111.1-45-156.8
				c-44.1-54.9-103.4-92.4-157.1-136.4c-16.7-13.7-30.3-30-30-53.9c0.2-13.3,6-18.3,19.1-18.9c30-1.2,58.7,6.1,87.6,12.2
				c25.7,5.4,51.1,12.3,76.9,17.4c23.4,4.6,45.5-3.8,67.5-10c29-8.2,55.9-23.3,86-27.6c53.8-7.7,107.6-9.3,157,18
				c38.7,21.4,66.7,54.4,90.3,91.7c19,29.9,21.9,63.8,26.5,97.3c8.8,64,12,128.6,17,193c1.7,22.2,12.4,42.1,21.7,61.8
				c42.1,89,91.7,174,139.4,260c34.6,62.5,68.5,125.3,102.3,188.2c14.8,27.5,31.9,53.9,43.8,83c15.3,37.4,23.1,76.7,28.7,116.2
				c10,70.1,15.7,140.7,13.5,211.6c-0.7,23.5-3.5,47.2-16.6,67.9c-11.5,18.1-29.8,20.2-46.1,6.2c-18.5-15.9-29.6-35-34.6-59.7
				c-14.7-72.3-39.9-141.5-67.7-209.6c-14.9-36.6-30.5-73-46.3-109.1C919.9,1008.9,911.8,997.7,901.6,986.2z M7.6,1285.4
				c0,8.3,0.2,16.5,0,24.8c-1.1,39.5,9.9,74.7,36.3,104.6c6.7,7.6,13.8,15.2,24.9,12.8c10.2-2.2,14.6-10.9,17.8-20
				c1.5-4.1,3-8.4,3.5-12.7c3.5-29.3,7-58.6,9.9-88c3.6-36.5,9.6-72.6,15.4-108.8c6.8-41.6,30-77.3,39.6-117.8
				c1.9-8,4.8-15.8,8.4-23.2c2.6-5.4,4.1-15,12.3-12.5c6.3,2,7.5,10.5,6.8,17.3c-3.8,34.2-8,68.4-11.7,102.7
				c-4,37-14.1,73.3-11.5,111c1,14.2,1.1,28.8-0.6,42.9c-5.9,49.2-1.4,98.7-4.6,148.1c-1.6,24.3,3.6,50,8.4,74.8
				c20.6,106.8,54.6,206,147.3,274c14.1,10.3,13.8,19.5,2.9,33.7c-6.5,8.5-16.1,11.1-25,15.1c-37,16.7-74.3,32.8-111,50.1
				c-7.4,3.5-20.2,6.6-16.2,19.3c3.4,10.9,14.3,10.2,23.8,10.2c14.7,0,29.4,0.1,44.1,0c10.1-0.1,15.7,3.7,18.3,14.5
				c2.3,9.7,0.9,19.6,4.8,29.1c6.1,15.1,13.3,19.3,27.6,11.5c10.5-5.7,20.9-12.1,29.4-20.9c34.4-35.6,74.8-49.9,123.7-35.5
				c8.4,2.5,17.2,1.4,26-0.9c15-4,17.6-13.9,13.5-26.5c-3.4-10.5-9.7-19.8-17.2-27.9c-8.3-9-14.5-19.3-19.7-30.3
				c-7.3-15.2-3.6-27.2,11.8-33.4c17.3-6.9,34.9-13.1,52.8-18.4c39.5-11.7,80.5-15.9,121.3-19.6c37.5-3.4,74.7,1,109.3,17.5
				c16,7.7,28.9,20.6,29.8,38.8c0.9,17.3-11.2,28.1-26.3,36.6c-19,10.7-38.6,21.2-53.3,38.2c-4.7,5.5-10.4,11.5-8,18.8
				c2.6,7.8,11.3,7.9,18.2,8.1c18.5,0.5,37.1,0.1,55.6,0.3c18.8,0.2,34.7,5.8,43.1,24.3c4.6,10.1,10.8,19.2,19.5,26.1
				c11.6,9.2,22.8,12.5,33.8-1.7c6-7.8,14-14,20.8-21.2c26.8-27.9,57.5-39.5,95.2-23.9c9.2,3.8,19,5.9,24.6-4.7
				c4.8-9.1,1.5-17.4-5.8-25.2c-17.4-18.7-39.6-31.1-59.1-47.1c-26.5-21.7-46-54.9-29.3-84.4c5.1-9.1,10.3-18.2,15.5-27.2
				c32.4-56.9,53.7-117.7,64.1-182.3c8.6-53.4,6.9-107.4,6.6-161.2c-0.4-56.6-4.7-112.5-19.5-167.7c-18.9-70.4-31-142.5-52.9-212.2
				c-4.7-15-13.2-29.1-10-46c0.8-4.4,0.9-9.7,5.1-11.4c4.4-1.8,8.4,2,11.3,5.3c9.4,10.8,17.7,22.5,23.5,35.6
				c12.9,29.1,25.1,58.5,37.5,87.9c31.8,75.5,59.7,152.4,77,232.6c4.2,19.7,11.5,36.1,26.3,49.8c20.6,19.1,37.5,15.7,46.8-11.4
				c6.4-18.7,10-38.2,10.3-58.1c0.9-56-3.2-111.8-9.7-167.4c-8.1-69.5-20.4-137.2-56.8-199.2C1028,892.2,995.8,829,961.8,766.8
				C908.6,669.4,852,573.8,804,473.6c-9.9-20.7-21.3-41.7-23.2-64.8c-5.3-64.4-8.2-129-17.1-193c-4.7-34-7.5-68.5-27-98.9
				C713.8,81.3,687,49.5,649.6,29c-47-25.8-97.8-24.9-148.9-17.7c-30.1,4.2-57.1,19.4-86.1,27.5c-24.5,6.9-48.9,16.4-75.3,10.4
				c-26.7-6.1-53.1-13.4-80-18.5c-24.7-4.7-49.1-11.8-74.6-11c-17.4,0.5-23.7,7.6-17.4,23.8c5.3,13.6,13.3,26.3,25.2,35.9
				c55.4,44.6,115.8,83.3,160.9,139.7c37.9,47.4,58.5,100.3,45,161.9c-15.3,69.9-41.6,135.2-83.5,193.6
				c-56.7,79-109.1,160.8-162.8,241.8c-31.4,47.4-67.7,92.3-82.5,149.2c-6.7,25.5-15.3,50.4-22.8,75.7
				C23.1,1120.8,4.8,1201.4,7.6,1285.4z"/>
			<path class="st2" d="M7.6,1285.4c-2.8-84,15.4-164.5,39.2-244.2c7.5-25.2,16.2-50.2,22.8-75.7c14.8-56.8,51.2-101.8,82.5-149.2
				c53.6-81,106.1-162.9,162.8-241.8c41.9-58.4,68.2-123.8,83.5-193.6c13.5-61.6-7.1-114.5-45-161.9
				c-45-56.3-105.5-95.1-160.9-139.7c-12-9.6-19.9-22.3-25.2-35.9c-6.3-16.2,0-23.2,17.4-23.8c25.5-0.8,49.9,6.3,74.6,11
				c26.9,5.1,53.3,12.4,80,18.5c26.3,6,50.7-3.5,75.3-10.4c29-8.1,55.9-23.3,86.1-27.5c51.1-7.2,102-8.1,148.9,17.7
				c37.4,20.6,64.2,52.3,87.1,87.9c19.5,30.3,22.3,64.8,27,98.9c8.8,64.1,11.8,128.7,17.1,193c1.9,23.1,13.3,44.1,23.2,64.8
				c48,100.2,104.6,195.8,157.8,293.2c34,62.2,66.2,125.4,102.1,186.5c36.3,61.9,48.6,129.6,56.8,199.2
				c6.5,55.6,10.6,111.4,9.7,167.4c-0.3,19.9-3.9,39.3-10.3,58.1c-9.3,27-26.2,30.5-46.8,11.4c-14.8-13.7-22-30.1-26.3-49.8
				c-17.3-80.2-45.3-157.1-77-232.6c-12.3-29.4-24.6-58.8-37.5-87.9c-5.8-13.1-14.1-24.8-23.5-35.6c-2.9-3.3-6.9-7.1-11.3-5.3
				c-4.2,1.7-4.3,7-5.1,11.4c-3.2,16.8,5.3,31,10,46c21.9,69.7,34,141.8,52.9,212.2c14.9,55.2,19.2,111.1,19.5,167.7
				c0.3,53.8,2,107.8-6.6,161.2c-10.3,64.6-31.7,125.4-64.1,182.3c-5.2,9.1-10.3,18.1-15.5,27.2c-16.7,29.5,2.8,62.7,29.3,84.4
				c19.5,16,41.7,28.4,59.1,47.1c7.3,7.9,10.6,16.1,5.8,25.2c-5.6,10.7-15.4,8.5-24.6,4.7c-37.6-15.6-68.4-4-95.2,23.9
				c-6.9,7.1-14.8,13.4-20.8,21.2c-11,14.2-22.2,11-33.8,1.7c-8.7-6.9-14.9-16-19.5-26.1c-8.5-18.5-24.4-24.1-43.1-24.3
				c-18.5-0.2-37.1,0.2-55.6-0.3c-6.9-0.2-15.6-0.3-18.2-8.1c-2.5-7.3,3.2-13.3,8-18.8c14.7-17.1,34.3-27.5,53.3-38.2
				c15.1-8.5,27.2-19.3,26.3-36.6c-0.9-18.2-13.8-31.1-29.8-38.8c-34.6-16.6-71.7-20.9-109.3-17.5c-40.8,3.7-81.8,7.8-121.3,19.6
				c-17.9,5.3-35.5,11.5-52.8,18.4c-15.4,6.2-19.1,18.2-11.8,33.4c5.3,10.9,11.4,21.2,19.7,30.3c7.5,8.1,13.7,17.5,17.2,27.9
				c4.2,12.6,1.5,22.5-13.5,26.5c-8.8,2.4-17.6,3.4-26,0.9c-48.9-14.5-89.3-0.2-123.7,35.5c-8.5,8.8-18.9,15.2-29.4,20.9
				c-14.3,7.7-21.5,3.6-27.6-11.5c-3.8-9.5-2.4-19.5-4.8-29.1c-2.6-10.8-8.2-14.6-18.3-14.5c-14.7,0.1-29.4,0-44.1,0
				c-9.4,0-20.3,0.7-23.8-10.2c-4-12.7,8.8-15.8,16.2-19.3c36.7-17.4,74-33.4,111-50.1c8.9-4,18.5-6.6,25-15.1
				c10.9-14.2,11.2-23.4-2.9-33.7c-92.7-68-126.8-167.2-147.3-274c-4.8-24.8-10-50.5-8.4-74.8c3.2-49.4-1.3-98.9,4.6-148.1
				c1.7-14.1,1.6-28.7,0.6-42.9c-2.6-37.8,7.5-74,11.5-111c3.7-34.3,7.9-68.5,11.7-102.7c0.7-6.8-0.5-15.3-6.8-17.3
				c-8.2-2.6-9.7,7.1-12.3,12.5c-3.6,7.4-6.5,15.2-8.4,23.2c-9.6,40.5-32.8,76.3-39.6,117.8c-5.9,36.2-11.9,72.3-15.4,108.8
				c-2.9,29.4-6.4,58.7-9.9,88c-0.5,4.3-2.1,8.5-3.5,12.7c-3.2,9-7.6,17.8-17.8,20c-11.1,2.4-18.2-5.2-24.9-12.8
				c-26.4-29.9-37.4-65.1-36.3-104.6C7.8,1301.9,7.6,1293.6,7.6,1285.4z M261.9,1382.4c0.9,64.9-3.7,136.3,16,206.4
				c8.9,31.6,19.1,61.8,39.4,87.8c11.5,14.8,26.5,24.1,44.7,29c30.2,8.2,60.9,14.4,92,15.5c25.6,0.9,50.5-7.1,75.5-13.4
				c62.4-15.7,125.3-25.1,189.4-8.5c23.9,6.2,48.4,8.4,73,3c32.2-7.1,58.3-22.8,72.7-53.5c10.7-22.7,14.3-47.1,14.6-72
				c1.1-87.3,0.7-174.7-10.2-261.5c-3.3-26.5-4.4-54.7-19.6-77.5c-14.9-22.3-20-47-25-72c-16.6-83.2-36.4-166-40.2-251
				c-2.6-58.1-6.8-116.2-7.1-174.3c-0.2-26.5-1.9-52.6-7-78.5c-10.6-54.1-33.6-101.8-80.3-133.2c-60.4-40.5-126.2-42.7-193.7-19.6
				c-22,7.5-42.7,17.8-57.6,36.7c-44.4,56.1-71.4,121-90,189c-29.1,106.7-50.1,215.3-67.7,324.6c-13.1,81.5-16.3,163.4-18.9,245.6
				C261.3,1328.7,261.9,1352.4,261.9,1382.4z M704.4,241.9c0.2-17.6-3-30.7-9.7-43.1c-3.9-7.3-9.9-12.9-17.9-12.8
				c-8.1,0.1-9.3,8.9-11.1,14.7c-3.9,13-3.5,28.1-9.9,39.6c-26,46.8-59.6,87.4-110.8,108c-21.2,8.5-40.7,19-58.9,32.2
				c-12.5,9-24,19.3-30.1,34.2c-6.1,14.9-1.2,23.2,15,24.8c16.8,1.7,32.7-2.6,48.3-8.2c30.6-10.9,62.1-18.3,94.3-21.2
				c33.5-3,64.4-26.8,77.8-57.8C707.5,315.2,695.3,275.7,704.4,241.9z M644.9,145.1c0-35.5-15.9-55.5-47.2-63.4
				c-32.4-8.2-58.2,0.3-79.9,26.7c-20.8,25.2-30.9,50.4-18.1,82.9c18.6,47.3,78.1,61,114.7,26.4C636.7,196.7,641,169.7,644.9,145.1z
				"/>
			<path class="st1" d="M261.9,1382.4c0-30-0.6-53.7,0.1-77.4c2.5-82.1,5.7-164.1,18.9-245.6c17.6-109.3,38.6-217.9,67.7-324.6
				c18.6-68,45.6-132.9,90-189c14.9-18.9,35.5-29.1,57.6-36.7c67.5-23.1,133.3-20.9,193.7,19.6c46.7,31.3,69.7,79.1,80.3,133.2
				c5.1,25.9,6.8,52,7,78.5c0.4,58.2,4.5,116.2,7.1,174.3c3.8,85,23.6,167.8,40.2,251c5,25,10.1,49.7,25,72
				c15.2,22.8,16.3,51,19.6,77.5c10.8,86.8,11.2,174.2,10.2,261.5c-0.3,24.8-3.9,49.3-14.6,72c-14.5,30.8-40.5,46.5-72.7,53.5
				c-24.6,5.4-49.1,3.2-73-3c-64.1-16.5-127-7.1-189.4,8.5c-25,6.3-49.9,14.4-75.5,13.4c-31-1.1-61.8-7.3-92-15.5
				c-18.3-5-33.2-14.3-44.7-29c-20.3-26-30.5-56.2-39.4-87.8C258.2,1518.7,262.8,1447.3,261.9,1382.4z M268.5,1375.8
				c0.6,70.7-2.6,141.4,16.2,211.1c16.4,60.9,39.7,112.7,112.3,119.4c1.1,0.1,2.1,0.7,3.2,0.9c37.4,7.1,74.1,8.3,111.7-2.2
				c68.9-19.3,138.9-30.3,210.3-12.4c21.8,5.5,44,7.9,66.4,2.9c30.3-6.8,55.9-20.2,69.4-49.9c10.4-22.8,14.4-47.1,14.7-72
				c1.1-85.2,0.2-170.3-10.2-254.9c-3.3-27.1-4.6-55.9-20.2-79c-14.4-21.4-19-44.9-23.9-68.9c-17.1-83.6-36.7-167.1-40.7-252.6
				c-2.7-58.1-6.8-116.2-7.2-174.4c-0.2-26.5-1.9-52.6-7-78.5c-10.3-52.3-31.7-99.3-76.9-129.9c-58.1-39.3-121.7-43.2-187.2-19.8
				c-20.8,7.4-40.8,16.3-55.1,34.4c-35.2,44.5-59.2,95-76.5,148.4c-38.2,118.1-59.5,240.1-80.1,362.3c-14,83-17,166.7-19.3,250.5
				C268,1332.8,268.5,1354.3,268.5,1375.8z"/>
			<path class="st1" d="M704.4,241.9c-9.1,33.8,3.1,73.3-12.9,110.4c-13.4,31.1-44.3,54.8-77.8,57.8c-32.2,2.9-63.7,10.3-94.3,21.2
				c-15.6,5.5-31.5,9.9-48.3,8.2c-16.2-1.7-21.2-9.9-15-24.8c6.1-14.9,17.7-25.2,30.1-34.2c18.2-13.1,37.7-23.6,58.9-32.2
				c51.1-20.6,84.7-61.2,110.8-108c6.4-11.5,5.9-26.5,9.9-39.6c1.7-5.8,3-14.6,11.1-14.7c8-0.1,13.9,5.5,17.9,12.8
				C701.4,211.2,704.6,224.3,704.4,241.9z M698.2,238.8c-1.1-11.8-3.1-23.1-8.5-33.5c-2.2-4.3-3.9-10.1-10-9.5
				c-6.1,0.5-7.1,6.3-8.3,11c-3.2,12.7-3.3,27.1-9.6,37.9C631.5,296.9,593,340,533.3,361.3c-27.6,9.8-53.1,26.4-69.1,53.4
				c-7.2,12.1-1.9,17.2,10.2,18.2c14.7,1.3,28.2-3.5,41.7-8.2c30.7-10.7,62.1-18.2,94.4-21.1c33.6-3,61.7-24.8,74.8-55.9
				C700.3,312,689.1,274.3,698.2,238.8z"/>
			<path class="st1" d="M644.9,145.1c-3.9,24.6-8.2,51.5-30.5,72.6c-36.6,34.5-96.1,20.9-114.7-26.4c-12.8-32.5-2.7-57.7,18.1-82.9
				c21.7-26.4,47.5-34.9,79.9-26.7C629.1,89.6,644.9,109.6,644.9,145.1z M573.6,85.8c-27.6-3-42.5,18.3-58.4,38
				c-15.9,19.8-17.9,41.1-8.7,64.7c15.7,40.4,70.7,58.1,103.8,23.2c14.8-15.6,21.5-33.7,25-54.2C643.1,113.3,620.8,85.9,573.6,85.8z
				"/>
			<path class="st0" d="M268.5,1375.8c0-21.5-0.5-43,0.1-64.5c2.2-83.8,5.3-167.5,19.3-250.5c20.6-122.2,41.9-244.1,80.1-362.3
				c17.3-53.4,41.3-103.9,76.5-148.4c14.3-18.1,34.4-27,55.1-34.4c65.5-23.4,129-19.6,187.2,19.8c45.2,30.6,66.6,77.6,76.9,129.9
				c5.1,25.9,6.8,52,7,78.5c0.4,58.2,4.4,116.3,7.2,174.4c4,85.5,23.7,168.9,40.7,252.6c4.9,24,9.4,47.5,23.9,68.9
				c15.6,23.2,16.8,52,20.2,79c10.4,84.7,11.3,169.8,10.2,254.9c-0.3,24.9-4.3,49.2-14.7,72c-13.6,29.7-39.2,43.1-69.4,49.9
				c-22.4,5-44.6,2.5-66.4-2.9c-71.5-17.9-141.4-6.9-210.3,12.4c-37.6,10.5-74.3,9.3-111.7,2.2c-1.1-0.2-2.1-0.8-3.2-0.9
				c-72.6-6.7-95.9-58.6-112.3-119.4C265.9,1517.2,269,1446.5,268.5,1375.8z"/>
			<path class="st0" d="M698.2,238.8c-9.1,35.5,2.1,73.3-12.9,108.8c-13.1,31.1-41.2,52.9-74.8,55.9c-32.2,2.9-63.7,10.4-94.4,21.1
				c-13.4,4.7-27,9.5-41.7,8.2c-12.2-1.1-17.4-6.1-10.2-18.2c16-27,41.5-43.5,69.1-53.4c59.7-21.3,98.2-64.4,128.5-116.6
				c6.3-10.8,6.3-25.2,9.6-37.9c1.2-4.7,2.2-10.5,8.3-11c6.1-0.5,7.8,5.2,10,9.5C695.1,215.7,697.1,227,698.2,238.8z"/>
			<path class="st0" d="M573.6,85.8c47.2,0.1,69.4,27.4,61.8,71.7c-3.5,20.5-10.2,38.6-25,54.2c-33.1,34.9-88.1,17.2-103.8-23.2
				c-9.2-23.6-7.2-44.9,8.7-64.7C531.1,104.1,546,82.8,573.6,85.8z M577.3,122.2c-25.9-0.1-44.7,22.9-44.7,54.7
				c0,25.3,13.8,40.6,37,41.1c31.2,0.6,54.8-24.7,55.4-59.1C625.5,135.2,604.9,124.7,577.3,122.2z"/>
			<path class="st1" d="M577.3,122.2c27.6,2.5,48.2,13,47.8,36.8c-0.6,34.3-24.2,59.7-55.4,59.1c-23.2-0.5-37-15.8-37-41.1
				C532.6,145.1,551.4,122.1,577.3,122.2z M539.3,176.7c0,20.8,12.6,34.6,31.4,34.6c25.8,0,47.8-24.5,47.5-52.8
				c-0.1-15.7-19.9-29.8-41.2-29.6C556,129.1,539.3,150.3,539.3,176.7z"/>
			<path class="st0" d="M539.3,176.7c0-26.5,16.7-47.6,37.7-47.8c21.4-0.2,41.1,13.9,41.2,29.6c0.3,28.3-21.8,52.8-47.5,52.8
				C551.8,211.3,539.3,197.5,539.3,176.7z"/>
		</g>
	</g>
	<path class="st3" d="M476.2,621c0-52.2,42.3-94.5,94.5-94.5c52.2,0,94.5,42.3,94.5,94.5"/>
	<path class="st3" d="M503.2,621c0-37.3,30.2-67.5,67.5-67.5c37.3,0,67.5,30.2,67.5,67.5"/>
	<path class="st3" d="M556,1481.2c0,30.1,24.4,54.5,54.5,54.5c30.1,0,54.5-24.4,54.5-54.5"/>
	<path class="st3" d="M583,1481.2c0,14.9,12.1,27,27,27s27-12.1,27-27"/>
</g>
<g id="Layer_1">
	<circle cx="476" cy="635" r="4"/>
	<circle cx="476" cy="653" r="4"/>
	<circle cx="476" cy="671" r="4"/>
	<circle cx="476" cy="689" r="4"/>
	<circle cx="476" cy="707" r="4"/>
	<circle cx="476" cy="743" r="4"/>
	<circle cx="476" cy="761" r="4"/>
	<circle cx="476" cy="779" r="4"/>
	<circle cx="476" cy="797" r="4"/>
	<circle cx="476" cy="815" r="4"/>
	<circle cx="476" cy="851" r="4"/>
	<circle cx="476" cy="869" r="4"/>
	<circle cx="476" cy="887" r="4"/>
	<circle cx="476" cy="905" r="4"/>
	<circle cx="476" cy="923" r="4"/>
	<circle cx="476" cy="959" r="4"/>
	<circle cx="476" cy="977" r="4"/>
	<circle cx="476" cy="995" r="4"/>
	<circle cx="476" cy="1013" r="4"/>
	<circle cx="476" cy="1031" r="4"/>
	<circle cx="476" cy="1067" r="4"/>
	<circle cx="476" cy="1085" r="4"/>
	<circle cx="476" cy="1103" r="4"/>
	<circle cx="476" cy="1121" r="4"/>
	<circle cx="476" cy="1139" r="4"/>
	<circle cx="476" cy="1175" r="4"/>
	<circle cx="476" cy="1193" r="4"/>
	<circle cx="476" cy="1211" r="4"/>
	<circle cx="476" cy="1229" r="4"/>
	<circle cx="476" cy="1247" r="4"/>
	<circle cx="476" cy="1283" r="4"/>
	<circle cx="476" cy="1301" r="4"/>
	<circle cx="476" cy="1319" r="4"/>
	<circle cx="476" cy="1337" r="4"/>
	<circle cx="476" cy="1355" r="4"/>
	<circle cx="476" cy="1391" r="4"/>
	<circle cx="476" cy="1409" r="4"/>
	<circle cx="476" cy="1427" r="4"/>
	<circle cx="476" cy="1445" r="4"/>
	<circle cx="476" cy="1463" r="4"/>
	<circle cx="503" cy="635" r="4"/>
	<circle cx="503" cy="653" r="4"/>
	<circle cx="503" cy="671" r="4"/>
	<circle cx="503" cy="689" r="4"/>
	<circle cx="503" cy="707" r="4"/>
	<circle cx="503" cy="743" r="4"/>
	<circle cx="503" cy="761" r="4"/>
	<circle cx="503" cy="779" r="4"/>
	<circle cx="503" cy="797" r="4"/>
	<circle cx="503" cy="815" r="4"/>
	<circle cx="503" cy="851" r="4"/>
	<circle cx="503" cy="869" r="4"/>
	<circle cx="503" cy="887" r="4"/>
	<circle cx="503" cy="905" r="4"/>
	<circle cx="503" cy="923" r="4"/>
	<circle cx="503" cy="959" r="4"/>
	<circle cx="503" cy="977" r="4"/>
	<circle cx="503" cy="995" r="4"/>
	<circle cx="503" cy="1013" r="4"/>
	<circle cx="503" cy="1031" r="4"/>
	<circle cx="503" cy="1067" r="4"/>
	<circle cx="503" cy="1085" r="4"/>
	<circle cx="503" cy="1103" r="4"/>
	<circle cx="503" cy="1121" r="4"/>
	<circle cx="503" cy="1139" r="4"/>
	<circle cx="503" cy="1175" r="4"/>
	<circle cx="503" cy="1193" r="4"/>
	<circle cx="503" cy="1211" r="4"/>
	<circle cx="503" cy="1229" r="4"/>
	<circle cx="503" cy="1247" r="4"/>
	<circle cx="503" cy="1283" r="4"/>
	<circle cx="503" cy="1301" r="4"/>
	<circle cx="503" cy="1319" r="4"/>
	<circle cx="503" cy="1337" r="4"/>
	<circle cx="503" cy="1355" r="4"/>
	<circle cx="503" cy="1391" r="4"/>
	<circle cx="503" cy="1409" r="4"/>
	<circle cx="503" cy="1427" r="4"/>
	<circle cx="503" cy="1445" r="4"/>
	<circle cx="503" cy="1463" r="4"/>
	<circle cx="557" cy="635" r="4"/>
	<circle cx="557" cy="653" r="4"/>
	<circle cx="557" cy="671" r="4"/>
	<circle cx="557" cy="689" r="4"/>
	<circle cx="557" cy="707" r="4"/>
	<circle cx="557" cy="743" r="4"/>
	<circle cx="557" cy="761" r="4"/>
	<circle cx="557" cy="779" r="4"/>
	<circle cx="557" cy="797" r="4"/>
	<circle cx="557" cy="815" r="4"/>
	<circle cx="557" cy="851" r="4"/>
	<circle cx="557" cy="869" r="4"/>
	<circle cx="557" cy="887" r="4"/>
	<circle cx="557" cy="905" r="4"/>
	<circle cx="557" cy="923" r="4"/>
	<circle cx="557" cy="959" r="4"/>
	<circle cx="557" cy="977" r="4"/>
	<circle cx="557" cy="995" r="4"/>
	<circle cx="557" cy="1013" r="4"/>
	<circle cx="557" cy="1031" r="4"/>
	<circle cx="557" cy="1067" r="4"/>
	<circle cx="557" cy="1085" r="4"/>
	<circle cx="557" cy="1103" r="4"/>
	<circle cx="557" cy="1121" r="4"/>
	<circle cx="557" cy="1139" r="4"/>
	<circle cx="557" cy="1175" r="4"/>
	<circle cx="557" cy="1193" r="4"/>
	<circle cx="557" cy="1211" r="4"/>
	<circle cx="557" cy="1229" r="4"/>
	<circle cx="557" cy="1247" r="4"/>
	<circle cx="557" cy="1283" r="4"/>
	<circle cx="557" cy="1301" r="4"/>
	<circle cx="557" cy="1319" r="4"/>
	<circle cx="557" cy="1337" r="4"/>
	<circle cx="557" cy="1355" r="4"/>
	<circle cx="557" cy="1391" r="4"/>
	<circle cx="557" cy="1409" r="4"/>
	<circle cx="557" cy="1427" r="4"/>
	<circle cx="557" cy="1445" r="4"/>
	<circle cx="557" cy="1463" r="4"/>
	<circle cx="584" cy="635" r="4"/>
	<circle cx="584" cy="653" r="4"/>
	<circle cx="584" cy="671" r="4"/>
	<circle cx="584" cy="689" r="4"/>
	<circle cx="584" cy="707" r="4"/>
	<circle cx="584" cy="743" r="4"/>
	<circle cx="584" cy="761" r="4"/>
	<circle cx="584" cy="779" r="4"/>
	<circle cx="584" cy="797" r="4"/>
	<circle cx="584" cy="815" r="4"/>
	<circle cx="584" cy="851" r="4"/>
	<circle cx="584" cy="869" r="4"/>
	<circle cx="584" cy="887" r="4"/>
	<circle cx="584" cy="905" r="4"/>
	<circle cx="584" cy="923" r="4"/>
	<circle cx="584" cy="959" r="4"/>
	<circle cx="584" cy="977" r="4"/>
	<circle cx="584" cy="995" r="4"/>
	<circle cx="584" cy="1013" r="4"/>
	<circle cx="584" cy="1031" r="4"/>
	<circle cx="584" cy="1067" r="4"/>
	<circle cx="584" cy="1085" r="4"/>
	<circle cx="584" cy="1103" r="4"/>
	<circle cx="584" cy="1121" r="4"/>
	<circle cx="584" cy="1139" r="4"/>
	<circle cx="584" cy="1175" r="4"/>
	<circle cx="584" cy="1193" r="4"/>
	<circle cx="584" cy="1211" r="4"/>
	<circle cx="584" cy="1229" r="4"/>
	<circle cx="584" cy="1247" r="4"/>
	<circle cx="584" cy="1283" r="4"/>
	<circle cx="584" cy="1301" r="4"/>
	<circle cx="584" cy="1319" r="4"/>
	<circle cx="584" cy="1337" r="4"/>
	<circle cx="584" cy="1355" r="4"/>
	<circle cx="584" cy="1391" r="4"/>
	<circle cx="584" cy="1409" r="4"/>
	<circle cx="584" cy="1427" r="4"/>
	<circle cx="584" cy="1445" r="4"/>
	<circle cx="584" cy="1463" r="4"/>
	<circle cx="638" cy="635" r="4"/>
	<circle cx="638" cy="653" r="4"/>
	<circle cx="638" cy="671" r="4"/>
	<circle cx="638" cy="689" r="4"/>
	<circle cx="638" cy="707" r="4"/>
	<circle cx="638" cy="743" r="4"/>
	<circle cx="638" cy="761" r="4"/>
	<circle cx="638" cy="779" r="4"/>
	<circle cx="638" cy="797" r="4"/>
	<circle cx="638" cy="815" r="4"/>
	<circle cx="638" cy="851" r="4"/>
	<circle cx="638" cy="869" r="4"/>
	<circle cx="638" cy="887" r="4"/>
	<circle cx="638" cy="905" r="4"/>
	<circle cx="638" cy="923" r="4"/>
	<circle cx="638" cy="959" r="4"/>
	<circle cx="638" cy="977" r="4"/>
	<circle cx="638" cy="995" r="4"/>
	<circle cx="638" cy="1013" r="4"/>
	<circle cx="638" cy="1031" r="4"/>
	<circle cx="638" cy="1067" r="4"/>
	<circle cx="638" cy="1085" r="4"/>
	<circle cx="638" cy="1103" r="4"/>
	<circle cx="638" cy="1121" r="4"/>
	<circle cx="638" cy="1139" r="4"/>
	<circle cx="638" cy="1175" r="4"/>
	<circle cx="638" cy="1193" r="4"/>
	<circle cx="638" cy="1211" r="4"/>
	<circle cx="638" cy="1229" r="4"/>
	<circle cx="638" cy="1247" r="4"/>
	<circle cx="638" cy="1283" r="4"/>
	<circle cx="638" cy="1301" r="4"/>
	<circle cx="638" cy="1319" r="4"/>
	<circle cx="638" cy="1337" r="4"/>
	<circle cx="638" cy="1355" r="4"/>
	<circle cx="638" cy="1391" r="4"/>
	<circle cx="638" cy="1409" r="4"/>
	<circle cx="638" cy="1427" r="4"/>
	<circle cx="638" cy="1445" r="4"/>
	<circle cx="638" cy="1463" r="4"/>
	<circle cx="665" cy="635" r="4"/>
	<circle cx="665" cy="653" r="4"/>
	<circle cx="665" cy="671" r="4"/>
	<circle cx="665" cy="689" r="4"/>
	<circle cx="665" cy="707" r="4"/>
	<circle cx="665" cy="743" r="4"/>
	<circle cx="665" cy="761" r="4"/>
	<circle cx="665" cy="779" r="4"/>
	<circle cx="665" cy="797" r="4"/>
	<circle cx="665" cy="815" r="4"/>
	<circle cx="665" cy="851" r="4"/>
	<circle cx="665" cy="869" r="4"/>
	<circle cx="665" cy="887" r="4"/>
	<circle cx="665" cy="905" r="4"/>
	<circle cx="665" cy="923" r="4"/>
	<circle cx="665" cy="959" r="4"/>
	<circle cx="665" cy="977" r="4"/>
	<circle cx="665" cy="995" r="4"/>
	<circle cx="665" cy="1013" r="4"/>
	<circle cx="665" cy="1031" r="4"/>
	<circle cx="665" cy="1067" r="4"/>
	<circle cx="665" cy="1085" r="4"/>
	<circle cx="665" cy="1103" r="4"/>
	<circle cx="665" cy="1121" r="4"/>
	<circle cx="665" cy="1139" r="4"/>
	<circle cx="665" cy="1175" r="4"/>
	<circle cx="665" cy="1193" r="4"/>
	<circle cx="665" cy="1211" r="4"/>
	<circle cx="665" cy="1229" r="4"/>
	<circle cx="665" cy="1247" r="4"/>
	<circle cx="665" cy="1283" r="4"/>
	<circle cx="665" cy="1301" r="4"/>
	<circle cx="665" cy="1319" r="4"/>
	<circle cx="665" cy="1337" r="4"/>
	<circle cx="665" cy="1355" r="4"/>
	<circle cx="665" cy="1391" r="4"/>
	<circle cx="665" cy="1409" r="4"/>
	<circle cx="665" cy="1427" r="4"/>
	<circle cx="665" cy="1445" r="4"/>
	<circle cx="665" cy="1463" r="4"/>
	<circle cx="480" cy="1625" r="4"/>
	<circle cx="498" cy="1625" r="4"/>
	<circle cx="516" cy="1625" r="4"/>
	<circle cx="534" cy="1625" r="4"/>
	<circle cx="552" cy="1625" r="4"/>
	<circle cx="588" cy="1625" r="4"/>
	<circle cx="606" cy="1625" r="4"/>
	<circle cx="624" cy="1625" r="4"/>
	<circle cx="642" cy="1625" r="4"/>
	<circle cx="660" cy="1625" r="4"/>
	<circle cx="480" cy="1643" r="4"/>
	<circle cx="498" cy="1643" r="4"/>
	<circle cx="516" cy="1643" r="4"/>
	<circle cx="534" cy="1643" r="4"/>
	<circle cx="552" cy="1643" r="4"/>
	<circle cx="588" cy="1643" r="4"/>
	<circle cx="606" cy="1643" r="4"/>
	<circle cx="624" cy="1643" r="4"/>
	<circle cx="642" cy="1643" r="4"/>
	<circle cx="660" cy="1643" r="4"/>
</g>
</svg>
