<?xml version="1.0"?>
<!-- Generated by SVGo -->
<svg width="504" height="1080"
     xmlns="http://www.w3.org/2000/svg"
     xmlns:xlink="http://www.w3.org/1999/xlink">
<circle cx="45" cy="63" r="4" />
<circle cx="45" cy="81" r="4" />
<circle cx="45" cy="99" r="4" />
<circle cx="45" cy="117" r="4" />
<circle cx="45" cy="135" r="4" />
<circle cx="45" cy="171" r="4" />
<circle cx="45" cy="189" r="4" />
<circle cx="45" cy="207" r="4" />
<circle cx="45" cy="225" r="4" />
<circle cx="45" cy="243" r="4" />
<circle cx="45" cy="279" r="4" />
<circle cx="45" cy="297" r="4" />
<circle cx="45" cy="315" r="4" />
<circle cx="45" cy="333" r="4" />
<circle cx="45" cy="351" r="4" />
<circle cx="45" cy="387" r="4" />
<circle cx="45" cy="405" r="4" />
<circle cx="45" cy="423" r="4" />
<circle cx="45" cy="441" r="4" />
<circle cx="45" cy="459" r="4" />
<circle cx="45" cy="495" r="4" />
<circle cx="45" cy="513" r="4" />
<circle cx="45" cy="531" r="4" />
<circle cx="45" cy="549" r="4" />
<circle cx="45" cy="567" r="4" />
<circle cx="45" cy="603" r="4" />
<circle cx="45" cy="621" r="4" />
<circle cx="45" cy="639" r="4" />
<circle cx="45" cy="657" r="4" />
<circle cx="45" cy="675" r="4" />
<circle cx="45" cy="711" r="4" />
<circle cx="45" cy="729" r="4" />
<circle cx="45" cy="747" r="4" />
<circle cx="45" cy="765" r="4" />
<circle cx="45" cy="783" r="4" />
<circle cx="45" cy="819" r="4" />
<circle cx="45" cy="837" r="4" />
<circle cx="45" cy="855" r="4" />
<circle cx="45" cy="873" r="4" />
<circle cx="45" cy="891" r="4" />
<circle cx="45" cy="927" r="4" />
<circle cx="45" cy="945" r="4" />
<circle cx="45" cy="963" r="4" />
<circle cx="45" cy="981" r="4" />
<circle cx="45" cy="999" r="4" />
<circle cx="72" cy="63" r="4" />
<circle cx="72" cy="81" r="4" />
<circle cx="72" cy="99" r="4" />
<circle cx="72" cy="117" r="4" />
<circle cx="72" cy="135" r="4" />
<circle cx="72" cy="171" r="4" />
<circle cx="72" cy="189" r="4" />
<circle cx="72" cy="207" r="4" />
<circle cx="72" cy="225" r="4" />
<circle cx="72" cy="243" r="4" />
<circle cx="72" cy="279" r="4" />
<circle cx="72" cy="297" r="4" />
<circle cx="72" cy="315" r="4" />
<circle cx="72" cy="333" r="4" />
<circle cx="72" cy="351" r="4" />
<circle cx="72" cy="387" r="4" />
<circle cx="72" cy="405" r="4" />
<circle cx="72" cy="423" r="4" />
<circle cx="72" cy="441" r="4" />
<circle cx="72" cy="459" r="4" />
<circle cx="72" cy="495" r="4" />
<circle cx="72" cy="513" r="4" />
<circle cx="72" cy="531" r="4" />
<circle cx="72" cy="549" r="4" />
<circle cx="72" cy="567" r="4" />
<circle cx="72" cy="603" r="4" />
<circle cx="72" cy="621" r="4" />
<circle cx="72" cy="639" r="4" />
<circle cx="72" cy="657" r="4" />
<circle cx="72" cy="675" r="4" />
<circle cx="72" cy="711" r="4" />
<circle cx="72" cy="729" r="4" />
<circle cx="72" cy="747" r="4" />
<circle cx="72" cy="765" r="4" />
<circle cx="72" cy="783" r="4" />
<circle cx="72" cy="819" r="4" />
<circle cx="72" cy="837" r="4" />
<circle cx="72" cy="855" r="4" />
<circle cx="72" cy="873" r="4" />
<circle cx="72" cy="891" r="4" />
<circle cx="72" cy="927" r="4" />
<circle cx="72" cy="945" r="4" />
<circle cx="72" cy="963" r="4" />
<circle cx="72" cy="981" r="4" />
<circle cx="72" cy="999" r="4" />
<circle cx="99" cy="9" r="4" />
<circle cx="117" cy="9" r="4" />
<circle cx="135" cy="9" r="4" />
<circle cx="153" cy="9" r="4" />
<circle cx="171" cy="9" r="4" />
<circle cx="207" cy="9" r="4" />
<circle cx="225" cy="9" r="4" />
<circle cx="243" cy="9" r="4" />
<circle cx="261" cy="9" r="4" />
<circle cx="279" cy="9" r="4" />
<circle cx="315" cy="9" r="4" />
<circle cx="333" cy="9" r="4" />
<circle cx="351" cy="9" r="4" />
<circle cx="369" cy="9" r="4" />
<circle cx="387" cy="9" r="4" />
<circle cx="99" cy="36" r="4" />
<circle cx="117" cy="36" r="4" />
<circle cx="135" cy="36" r="4" />
<circle cx="153" cy="36" r="4" />
<circle cx="171" cy="36" r="4" />
<circle cx="207" cy="36" r="4" />
<circle cx="225" cy="36" r="4" />
<circle cx="243" cy="36" r="4" />
<circle cx="261" cy="36" r="4" />
<circle cx="279" cy="36" r="4" />
<circle cx="315" cy="36" r="4" />
<circle cx="333" cy="36" r="4" />
<circle cx="351" cy="36" r="4" />
<circle cx="369" cy="36" r="4" />
<circle cx="387" cy="36" r="4" />
<circle cx="99" cy="1026" r="4" />
<circle cx="117" cy="1026" r="4" />
<circle cx="135" cy="1026" r="4" />
<circle cx="153" cy="1026" r="4" />
<circle cx="171" cy="1026" r="4" />
<circle cx="207" cy="1026" r="4" />
<circle cx="225" cy="1026" r="4" />
<circle cx="243" cy="1026" r="4" />
<circle cx="261" cy="1026" r="4" />
<circle cx="279" cy="1026" r="4" />
<circle cx="315" cy="1026" r="4" />
<circle cx="333" cy="1026" r="4" />
<circle cx="351" cy="1026" r="4" />
<circle cx="369" cy="1026" r="4" />
<circle cx="387" cy="1026" r="4" />
<circle cx="99" cy="1053" r="4" />
<circle cx="117" cy="1053" r="4" />
<circle cx="135" cy="1053" r="4" />
<circle cx="153" cy="1053" r="4" />
<circle cx="171" cy="1053" r="4" />
<circle cx="207" cy="1053" r="4" />
<circle cx="225" cy="1053" r="4" />
<circle cx="243" cy="1053" r="4" />
<circle cx="261" cy="1053" r="4" />
<circle cx="279" cy="1053" r="4" />
<circle cx="315" cy="1053" r="4" />
<circle cx="333" cy="1053" r="4" />
<circle cx="351" cy="1053" r="4" />
<circle cx="369" cy="1053" r="4" />
<circle cx="387" cy="1053" r="4" />
<circle cx="414" cy="63" r="4" />
<circle cx="414" cy="81" r="4" />
<circle cx="414" cy="99" r="4" />
<circle cx="414" cy="117" r="4" />
<circle cx="414" cy="135" r="4" />
<circle cx="414" cy="171" r="4" />
<circle cx="414" cy="189" r="4" />
<circle cx="414" cy="207" r="4" />
<circle cx="414" cy="225" r="4" />
<circle cx="414" cy="243" r="4" />
<circle cx="414" cy="279" r="4" />
<circle cx="414" cy="297" r="4" />
<circle cx="414" cy="315" r="4" />
<circle cx="414" cy="333" r="4" />
<circle cx="414" cy="351" r="4" />
<circle cx="414" cy="387" r="4" />
<circle cx="414" cy="405" r="4" />
<circle cx="414" cy="423" r="4" />
<circle cx="414" cy="441" r="4" />
<circle cx="414" cy="459" r="4" />
<circle cx="414" cy="495" r="4" />
<circle cx="414" cy="513" r="4" />
<circle cx="414" cy="531" r="4" />
<circle cx="414" cy="549" r="4" />
<circle cx="414" cy="567" r="4" />
<circle cx="414" cy="603" r="4" />
<circle cx="414" cy="621" r="4" />
<circle cx="414" cy="639" r="4" />
<circle cx="414" cy="657" r="4" />
<circle cx="414" cy="675" r="4" />
<circle cx="414" cy="711" r="4" />
<circle cx="414" cy="729" r="4" />
<circle cx="414" cy="747" r="4" />
<circle cx="414" cy="765" r="4" />
<circle cx="414" cy="783" r="4" />
<circle cx="414" cy="819" r="4" />
<circle cx="414" cy="837" r="4" />
<circle cx="414" cy="855" r="4" />
<circle cx="414" cy="873" r="4" />
<circle cx="414" cy="891" r="4" />
<circle cx="414" cy="927" r="4" />
<circle cx="414" cy="945" r="4" />
<circle cx="414" cy="963" r="4" />
<circle cx="414" cy="981" r="4" />
<circle cx="414" cy="999" r="4" />
<circle cx="441" cy="63" r="4" />
<circle cx="441" cy="81" r="4" />
<circle cx="441" cy="99" r="4" />
<circle cx="441" cy="117" r="4" />
<circle cx="441" cy="135" r="4" />
<circle cx="441" cy="171" r="4" />
<circle cx="441" cy="189" r="4" />
<circle cx="441" cy="207" r="4" />
<circle cx="441" cy="225" r="4" />
<circle cx="441" cy="243" r="4" />
<circle cx="441" cy="279" r="4" />
<circle cx="441" cy="297" r="4" />
<circle cx="441" cy="315" r="4" />
<circle cx="441" cy="333" r="4" />
<circle cx="441" cy="351" r="4" />
<circle cx="441" cy="387" r="4" />
<circle cx="441" cy="405" r="4" />
<circle cx="441" cy="423" r="4" />
<circle cx="441" cy="441" r="4" />
<circle cx="441" cy="459" r="4" />
<circle cx="441" cy="495" r="4" />
<circle cx="441" cy="513" r="4" />
<circle cx="441" cy="531" r="4" />
<circle cx="441" cy="549" r="4" />
<circle cx="441" cy="567" r="4" />
<circle cx="441" cy="603" r="4" />
<circle cx="441" cy="621" r="4" />
<circle cx="441" cy="639" r="4" />
<circle cx="441" cy="657" r="4" />
<circle cx="441" cy="675" r="4" />
<circle cx="441" cy="711" r="4" />
<circle cx="441" cy="729" r="4" />
<circle cx="441" cy="747" r="4" />
<circle cx="441" cy="765" r="4" />
<circle cx="441" cy="783" r="4" />
<circle cx="441" cy="819" r="4" />
<circle cx="441" cy="837" r="4" />
<circle cx="441" cy="855" r="4" />
<circle cx="441" cy="873" r="4" />
<circle cx="441" cy="891" r="4" />
<circle cx="441" cy="927" r="4" />
<circle cx="441" cy="945" r="4" />
<circle cx="441" cy="963" r="4" />
<circle cx="441" cy="981" r="4" />
<circle cx="441" cy="999" r="4" />
</svg>
